<svg width="450" height="506" viewBox="0 0 450 506" fill="none" xmlns="http://www.w3.org/2000/svg">
<path d="M352.201 182.351C342.501 182.351 333.808 176.175 330.815 166.944C314.725 117.325 268.171 81.4502 213.242 81.4502C158.312 81.4502 110.579 118.237 95.0641 168.836C92.6654 176.655 86.2849 182.687 78.2734 184.31C33.6198 193.367 0 232.882 0 280.254C0 334.33 43.7901 378.158 97.7986 378.158H141.55V393.65C141.55 396.33 139.382 398.511 136.695 398.511H116.614C112.296 398.511 110.128 403.745 113.188 406.8L165.124 458.791C167.015 460.684 170.094 460.684 171.985 458.791L223.921 406.8C226.972 403.745 224.813 398.511 220.495 398.511H200.414C197.737 398.511 195.559 396.34 195.559 393.65V378.158H352.211C406.219 378.158 450.01 334.321 450.01 280.254C450.01 226.178 406.219 182.351 352.211 182.351H352.201Z" fill="#FBE3D9"/>
<path d="M377.647 252.679L356.481 182.447C355.061 182.389 353.641 182.351 352.202 182.351C342.492 182.351 333.809 176.156 330.815 166.916C319.695 132.645 294.039 104.935 261.129 91.0747L252.753 103.225C252.753 103.225 249.702 104.224 245.298 106.039C226.722 113.656 213.818 130.878 211.659 150.856L201.69 242.891C200.02 258.288 212.071 271.725 227.538 271.725L231.395 378.158H260.381V277.488H333.233L336.687 378.158H352.221C354.869 378.158 357.498 378.052 360.098 377.841L377.666 252.679H377.647Z" fill="#F4CCBE"/>
<path d="M432.663 275.48H88.0601C88.0601 275.48 320.712 262.783 432.653 275.48H432.663Z" fill="#F4CCBE"/>
<path d="M284.127 104.224L247.648 123.779C247.648 123.779 238.188 125.835 233.237 138.907L217.991 171.814L214.604 200.216C214.604 200.216 212.244 204.721 216.657 208.783C216.657 208.783 213.424 220.953 220.629 228.618C220.629 228.618 221.982 249.355 245.854 245.302L297.042 234.928H385.006L400.319 238.088L416.985 235.38C416.985 235.38 423.288 233.123 423.288 228.166L427.337 212.837C427.337 212.837 430.945 207.881 429.592 201.57C428.239 195.26 410.681 142.509 410.681 142.509C410.681 142.509 404.828 124.346 393.564 120.13L349.572 103.234L284.127 104.224Z" fill="#EC6625"/>
<path d="M336.658 97.577V62.7206L297.032 57.457V97.1832L284.127 104.224L316.845 120.6L349.563 103.234L336.658 97.577Z" fill="#E2A589"/>
<path d="M287.428 60.646C287.428 60.646 280.52 60.3098 279.167 49.7924L280.366 48.8895C280.366 48.8895 271.808 43.3282 274.216 31.7542L277.823 30.2558C277.823 30.2558 274.993 24.8482 280.615 18.9892L282.179 19.892L292.072 7.31912C293.76 5.17721 295.881 3.4195 298.318 2.21888C302.357 0.221044 308.584 -1.52706 314.6 2.16125C314.6 2.16125 327.812 -2.34349 334.413 4.41842C341.014 11.1803 348.076 18.24 348.076 18.24L350.781 18.0863C350.781 18.0863 355.732 23.0425 352.729 26.0488C352.729 26.0488 361.134 31.005 357.68 36.2685C354.226 41.5321 351.223 46.3346 352.576 51.1467L349.563 50.8489L347.318 60.6556H287.418L287.428 60.646Z" fill="#020D17"/>
<path d="M308.737 74.2849L325.864 115.039L336.658 108.162V68.5796L308.737 74.2849Z" fill="#D8846B"/>
<path d="M345.197 52.6737C344.478 52.376 343.739 52.2223 343 52.1839L340.726 48.4379C340.726 48.4379 328.752 49.0431 327.831 43.3281C327.831 43.3281 329.913 38.516 326.315 34.0113C322.717 29.5065 320.606 27.9985 320.606 27.9985C320.606 27.9985 311.904 30.102 311.002 37.0176C310.1 43.9332 299.594 44.8361 299.594 44.8361L290.066 47.2661L290.258 50.964C289.74 51.0313 289.232 51.1465 288.723 51.329C284.991 52.7122 283.168 57.0824 284.645 61.0781C285.729 64.0076 288.291 65.9286 291.054 66.1975C291.39 71.73 293.348 77.0416 296.706 81.4503L300.803 86.8387C304.007 91.0552 308.997 93.5237 314.293 93.5237H319.081C324.569 93.5237 329.721 90.8631 332.906 86.3776L335.42 82.843C337.733 79.5773 339.325 75.8602 340.074 71.9317L340.947 67.3982C344.209 67.888 347.596 65.9478 348.978 62.5477C350.58 58.6 348.901 54.1817 345.216 52.6737H345.197Z" fill="#E2A589"/>
<path d="M316.653 62.1348C316.173 62.1348 315.732 62.2692 315.338 62.4805C316.327 62.9896 317.017 64.0077 317.017 65.1987C317.017 66.1881 316.547 67.0525 315.828 67.6096C316.096 67.696 316.365 67.7537 316.662 67.7537C318.207 67.7537 319.464 66.4954 319.464 64.949C319.464 63.4026 318.207 62.1444 316.662 62.1444L316.653 62.1348Z" fill="#D8846B"/>
<path d="M306.108 59.8294C307.062 59.8294 307.835 58.5651 307.835 57.0055C307.835 55.4459 307.062 54.1816 306.108 54.1816C305.155 54.1816 304.381 55.4459 304.381 57.0055C304.381 58.5651 305.155 59.8294 306.108 59.8294Z" fill="#020D17"/>
<path d="M326.094 59.8294C327.048 59.8294 327.821 58.5651 327.821 57.0055C327.821 55.4459 327.048 54.1816 326.094 54.1816C325.14 54.1816 324.367 55.4459 324.367 57.0055C324.367 58.5651 325.14 59.8294 326.094 59.8294Z" fill="#020D17"/>
<path d="M318.198 78.3962C317.949 78.3962 317.699 78.3866 317.45 78.3578L313.468 77.9064L313.612 76.6865L317.594 77.138C318.505 77.2436 319.426 77.1092 320.261 76.7538C321.163 76.3696 322.688 75.5531 322.688 74.439H323.916C323.916 75.8125 322.823 77.0035 320.75 77.8871C319.944 78.2329 319.081 78.4058 318.208 78.4058L318.198 78.3962Z" fill="white"/>
<path d="M308.737 48.2941L309.793 50.6953C309.793 50.6953 303.489 49.4947 300.937 51.7519C300.937 51.7519 303.192 46.1906 308.737 48.2941Z" fill="#020D17"/>
<path d="M252.743 355.913L256.35 426.538H280.366L282.774 358.314L252.743 355.913Z" fill="#E2A589"/>
<path d="M357.833 355.913L349.419 424.732L372.84 426.538L386.656 364.624L357.833 355.913Z" fill="#E2A589"/>
<path d="M324.453 48.2941L323.398 50.6953C323.398 50.6953 329.702 49.4947 332.254 51.7519C332.254 51.7519 329.999 46.1906 324.453 48.2941Z" fill="#020D17"/>
<path d="M295.084 233.584L280.97 229.675C280.97 229.675 265.273 224.498 252.848 235.889C246.391 241.815 243.119 250.46 243.474 259.22L247.168 389.655L283.973 391.23L297.032 278.746L316.701 276.874L354.226 277.498L350.637 387.763L385.149 391.24L409.683 265.751C411.151 258.538 410.614 250.998 407.754 244.217C405.231 238.223 400.712 232.134 392.662 229.386C377.646 224.277 363.235 233.248 363.235 233.248L295.084 233.593V233.584Z" fill="#071C40"/>
<path d="M248.243 129.494C248.243 129.494 250.344 128.985 252.445 139.81C254.546 150.635 261.148 193.915 261.148 193.915L264.755 201.734V214.057L257.847 208.044C257.847 208.044 253.942 197.527 245.537 191.514L256.648 195.125L250.641 142.528L248.243 129.514V129.494Z" fill="#D0582F"/>
<path d="M392.96 129.495C392.96 129.495 389.956 132.895 389.055 137.707C388.153 142.519 377.646 207.439 377.646 207.439L382.146 205.038L390.551 204.433L392.95 196.019L403.763 184.243L387.251 193.617L392.96 129.504V129.495Z" fill="#D0582F"/>
<path d="M297.636 266.711L297.032 278.737L316.701 276.864L297.636 266.711Z" fill="#020D17"/>
<path d="M354.226 277.488V266.039L333.213 277.142L354.226 277.488Z" fill="#020D17"/>
<path d="M256.101 421.601C256.101 421.601 256.706 418.729 259.143 415.713C264.64 408.913 275.099 408.567 281.124 414.897C282.563 416.414 283.657 418.316 283.974 420.698L280.673 439.764H258.452L256.101 421.601Z" fill="#D0582F"/>
<path d="M272.729 455.699C256.984 455.401 251.352 452.673 251.352 452.673C251.122 458.225 251.553 464.42 251.553 464.42C251.553 464.42 272.873 466.821 294.182 464.42V452.548C294.182 452.548 288.474 456.006 272.729 455.708V455.699Z" fill="#071C40"/>
<path d="M287.274 436.758V432.772L286.67 422.024C286.67 422.024 283.667 419.017 277.968 422.024L275.866 435.25L267.759 435.547L263.556 422.024C263.556 422.024 259.958 420.218 254.547 422.024V439.457C254.547 439.457 252.148 443.664 251.544 449.676C251.448 450.618 251.39 451.626 251.342 452.664C251.342 452.664 256.974 455.391 272.719 455.689C288.464 455.987 294.173 452.529 294.173 452.529V450.579C294.173 450.579 292.676 440.36 287.265 436.758H287.274Z" fill="#EC6625"/>
<path d="M376.697 423.445C376.697 423.445 376.092 420.573 373.655 417.557C368.157 410.757 357.699 410.411 351.674 416.741C350.235 418.259 349.141 420.16 348.824 422.542L352.125 441.608H374.346L376.697 423.445Z" fill="#D0582F"/>
<path d="M360.059 457.533C375.804 457.235 381.436 454.508 381.436 454.508C381.666 460.059 381.235 466.255 381.235 466.255C381.235 466.255 359.915 468.656 338.605 466.255V454.383C338.605 454.383 344.314 457.841 360.059 457.543V457.533Z" fill="#071C40"/>
<path d="M345.523 438.592V434.606L346.128 423.858C346.128 423.858 349.131 420.852 354.83 423.858L356.931 437.084L365.039 437.382L369.241 423.858C369.241 423.858 372.839 422.052 378.251 423.858V438.285V441.291C378.251 441.291 380.649 445.498 381.254 451.511C381.35 452.452 381.407 453.461 381.455 454.498C381.455 454.498 375.823 457.226 360.078 457.524C344.333 457.821 338.625 454.364 338.625 454.364V452.414C338.625 452.414 340.121 442.194 345.533 438.592H345.523Z" fill="#EC6625"/>
<path d="M271.98 225.909L271.059 228.502H377.618C379.978 228.502 381.935 226.802 382.357 224.564H272.335C272.249 225.016 272.134 225.467 271.98 225.909Z" fill="#F0CFC6"/>
<path d="M383.71 221.837C384.65 220.482 385.149 218.878 385.149 217.226V157.608C385.149 154.16 382.338 151.374 378.893 151.422L277.305 152.671C273.87 152.71 271.126 155.553 271.203 158.991L272.536 222.519C272.556 223.21 272.479 223.892 272.354 224.564H382.376C382.434 224.276 382.463 223.969 382.463 223.662L383.729 221.837H383.71Z" fill="white"/>
<path d="M173.673 242.574C173.673 242.574 206.66 244.668 235.674 262.783C235.674 262.783 219.181 243.294 173.673 242.574Z" fill="#F4CCBE"/>
<path d="M235.674 506C340.409 506 425.313 503.816 425.313 501.121C425.313 498.426 340.409 496.242 235.674 496.242C130.939 496.242 46.0352 498.426 46.0352 501.121C46.0352 503.816 130.939 506 235.674 506Z" fill="#FBE3D9"/>
<path d="M297.032 93.5239L292.82 94.5997C289.683 95.4065 287.082 97.5964 285.758 100.555C284.703 102.918 284.549 105.578 285.317 108.056L290.575 124.884L309.793 117.066L300.131 107.23C298.116 105.175 296.994 102.409 297.003 99.5366L297.032 93.5239Z" fill="#D0582F"/>
<path d="M336.63 93.5239L340.842 94.5997C343.979 95.4065 346.579 97.5964 347.903 100.555C348.959 102.918 349.112 105.578 348.345 108.056L343.087 124.884L323.869 117.066L333.53 107.23C335.545 105.175 336.668 102.409 336.658 99.5366L336.63 93.5239Z" fill="#D0582F"/>
</svg>
