<?xml version="1.0" encoding="UTF-8"?>
<svg id="Layer_1" data-name="Layer 1" xmlns="http://www.w3.org/2000/svg" xmlns:xlink="http://www.w3.org/1999/xlink" viewBox="0 0 300 250">
  <defs>
    <style>
      .cls-1 {
        clip-path: url(#clippath);
      }

      .cls-2 {
        fill: none;
      }

      .cls-2, .cls-3, .cls-4, .cls-5, .cls-6, .cls-7, .cls-8, .cls-9, .cls-10, .cls-11, .cls-12, .cls-13, .cls-14, .cls-15, .cls-16, .cls-17, .cls-18, .cls-19, .cls-20, .cls-21 {
        stroke-width: 0px;
      }

      .cls-22 {
        clip-path: url(#clippath-1);
      }

      .cls-3 {
        fill: #828383;
      }

      .cls-4 {
        fill: #1c2744;
      }

      .cls-5 {
        fill: #1e3157;
      }

      .cls-6 {
        fill: #10182a;
      }

      .cls-7 {
        fill: #d34209;
      }

      .cls-8 {
        fill: #d7846a;
      }

      .cls-9 {
        fill: #d78a71;
      }

      .cls-10 {
        fill: #a1a1a1;
      }

      .cls-11 {
        fill: #fdf8f5;
      }

      .cls-12 {
        fill: #f2c0a0;
      }

      .cls-13 {
        fill: #ffd9ca;
      }

      .cls-14 {
        fill: #fff;
      }

      .cls-15 {
        fill: #fff3ec;
      }

      .cls-16 {
        fill: #e4aa8d;
      }

      .cls-17 {
        fill: #f16623;
      }

      .cls-18 {
        fill: #ffd2c2;
      }

      .cls-19 {
        fill: #ec6625;
      }

      .cls-20 {
        fill: #ecb99b;
      }

      .cls-21 {
        fill: #031026;
      }
    </style>
    <clipPath id="clippath">
      <rect class="cls-2" x=".57" width="298.87" height="250"/>
    </clipPath>
    <clipPath id="clippath-1">
      <polygon class="cls-2" points="153.38 250 .57 250 .57 0 204.05 0 153.38 250"/>
    </clipPath>
  </defs>
  <g>
    <rect class="cls-15" x=".57" width="298.87" height="250"/>
    <g class="cls-1">
      <g>
        <g>
          <g>
            <path class="cls-5" d="m269.97,206.51v97.84c0,7.81-6.33,14.13-14.13,14.13h0c-7.06,0-13.03-5.2-14-12.19l-6.56-47.32-7.29,50.35c-1,6.88-6.89,11.98-13.84,11.98h0c-7.5,0-13.66-5.91-13.98-13.41l-2.69-64.72s-.28-14.95,3.24-24.82l2.12-14.95,67.13,3.1Z"/>
            <path class="cls-21" d="m260.1,218.36s2.24,4.14,5.42,6.3c0,0-4.8-1.41-7.4-4.94l1.97-1.36Z"/>
            <path class="cls-21" d="m266.34,215.2l-8.22,4.52-29.54,3.39c-8.79,1.01-17.7-.32-25.81-3.86l-2.04-.89,2.12-12.83,63.5,9.68Z"/>
            <path class="cls-19" d="m282.17,149.47l-8.17,48.65-.37,13.74-.56,2c-.76,2.71-3.1,4.69-5.9,5l-27.45,3.02c-7.34.81-14.77.09-21.81-2.11l-12.6-3.94c-2.66-.83-4.38-3.42-4.11-6.2l5.59-57.57,75.39-2.6Z"/>
            <path class="cls-21" d="m230.94,194.33l10.45-13.68c.78-1.02,2.08-1.5,3.33-1.23l11.7,2.52c1.33.29,1.91,1.85,1.1,2.94l-11.47,15.4-15.11-5.94Z"/>
            <path class="cls-12" d="m300.72,152.07l16.81,25.48c2.8,4.24,1.78,9.93-2.31,12.94h0c-4.21,3.09-10.12,2.23-13.27-1.94l-18.16-24.07,16.92-12.41Z"/>
            <polygon class="cls-9" points="303.26 155.93 287.89 169.91 284.51 165.43 303.26 155.93"/>
            <polygon class="cls-12" points="300.29 175.91 271.8 218.36 282.56 228.23 316.18 189.68 300.29 175.91"/>
            <path class="cls-12" d="m189.87,155.36l-12.05,30.35c-2.24,5.63.43,12.02,6,14.4h0c5.57,2.37,12.01-.12,14.53-5.62l11.55-25.17-20.03-13.96Z"/>
            <path class="cls-19" d="m244.02,114.41l34.55,7.77s4.09.7,7.62,4.65c3.53,3.95,18.19,28.35,18.19,28.35l-19.46,13.12-4.94-5.92-70.52,8.88-27.5-9.87,16.5-31.02s2.12-4.94,7.05-6.78c4.94-1.83,32.94-11.42,32.94-11.42l5.56,2.25Z"/>
            <polygon class="cls-7" points="209.47 171.25 215.16 149.47 209.47 185.84 201.16 184.51 209.47 171.25"/>
            <polygon class="cls-7" points="230.28 126.13 220.99 123.11 215.16 124.4 220.7 117.52 230.28 126.13"/>
            <polygon class="cls-7" points="249.95 124.4 259.44 122.74 262.54 124.96 258.97 117.52 249.95 124.4"/>
            <path class="cls-19" d="m251.78,106.88s8.01,4.86,10.42,10.64l-.85,4.66-2.1-1.7s-1.41,1.63-7.47,3.92v-17.52Z"/>
            <path class="cls-19" d="m231.33,111.09s-6.31,7.34-2.73,13.87l-8.36-3.82-1.88,1.04.71-3.39s3.68-8.95,13.54-8.64l-1.27.93Z"/>
            <path class="cls-12" d="m283.79,222.87l1.2,2.58-2.94,4.53c-.52.8-1.16,1.53-1.88,2.16l-9.25,8.05c-.54.47-1.35.48-1.91.02h0c-.58-.48-.7-1.32-.28-1.94l4.21-6.33-5.64,5.31-4.15,2.99c-.61.44-1.44.34-1.94-.22h0c-.53-.6-.48-1.52.12-2.05l4.14-3.69,4.51-6.06-6.49,4.51-3.79,2.7c-.67.48-1.59.43-2.2-.12h0c-.78-.7-.78-1.92,0-2.62l6.55-5.88,2.85-2.76c.65-.63.6-1.69-.12-2.25l-1.97-1.53c-.3-.24-.68-.34-1.06-.31-1,.1-3.08.19-4.73-.5-.96-.4-.87-1.81.12-2.14l5.15-1.73c.66-.22,1.35-.36,2.05-.41l10.96-.79,6.49,8.46Z"/>
            <path class="cls-12" d="m258.12,91.11l-4.65,21.54s4.37,3.32,0,9.52c-4.37,6.2-11.56,12.03-11.56,12.03l-3.94-4.48c-.91-1.04-2.13-1.76-3.49-2.04-3.27-.68-9.54-3.05-9.36-11.3,0,0,.42-3.14,4.8-5.59l5.5-22.84,22.71,3.15Z"/>
            <path class="cls-9" d="m250.93,101.65s-2.26,6.07-7.76,8.5c-5.5,2.43-14.81,6.1-14.81,6.1l3.75-14.59h18.81Z"/>
            <path class="cls-12" d="m223.43,97.77l6.35-27.92,23.41-2.82s12.95,6.47,6.22,22.24c.71.8,1.15,1.85,1.15,3,0,2.49-2.02,4.52-4.52,4.52-.27,0-.54-.03-.8-.08l-2.54,4.52c-1.47,2.62-4.08,4.41-7.05,4.84l-12.83,1.86c-1.62.24-3.29.07-4.78-.6-2.4-1.08-5.09-3.61-4.61-9.57Z"/>
            <path class="cls-21" d="m264.9,67.98l-4.13-4.83c-1.77-2.08-4.23-3.45-6.93-3.88-2.91-.46-6.73-.9-9.57-.69-2.54.19-5.02.81-7.36,1.81l-9.69,4.12-1.21.46c-.67.25-1.19.83-1.28,1.54-.1.85.34,2.04,2.49,3.45,0,0-1.17,2.68,1.74,3.48l1.7-.85c.77-.39,1.7-.31,2.4.2,1.02.73,2.56,1.69,3.76,1.79.38.03,3.47-.06,6.02-.14,2.23-.07,4.42.61,6.22,1.95l.28.21c-.62,1.14-.92,2.24-.42,2.99,1.41,2.11,1.66,5.58,3.47,7.93.27.35.5.72.63,1.14.19.64.41,1.64.32,2.71-.11.37-.28.71-.48,1.03l1.68,1.29c.5-1.22.91-2.15,1.09-2.54l.66-1.3c.45-.89,1.49-1.4,2.44-1.08.28.09.52.25.7.51,0,0,1.47-2.47,2.27-5.65,1.89-3.4,5.93-11.64,3.22-15.64Z"/>
            <ellipse class="cls-21" cx="239.68" cy="85.14" rx="1.92" ry="1.04" transform="translate(118.94 309.01) rotate(-81.22)"/>
            <ellipse class="cls-21" cx="228.86" cy="83.78" rx="1.92" ry="1.04" transform="translate(111.12 297.16) rotate(-81.22)"/>
            <path class="cls-21" d="m239.9,80.2c-.36-.04-.72.13-.93.43l-.59.85s3.61.31,4,1.45c0,0,.07-2.48-2.48-2.73Z"/>
            <path class="cls-21" d="m230.35,79.02c.25.13.38.42.34.76l-.11.96s-2.45-1.33-3.35-.57c0,0,1.38-2.06,3.12-1.15Z"/>
            <path class="cls-21" d="m239.7,228.23l-.72,13.41c-.14,2.7-.8,5.34-1.94,7.79l-2.04,4.38,1.95-8.05c.14-.59.26-1.19.35-1.79l2.4-15.73Z"/>
            <polygon class="cls-12" points="195.07 179.15 230.94 187.65 227.99 203.75 188.8 200.98 195.07 179.15"/>
            <path class="cls-12" d="m222.54,191.7l10.32-8.61c.99-.83,2.27-1.24,3.55-1.16l3.8.25-3.55,5.51,6.83,2.84c.9.37,1.87.53,2.83.47l6.71-.42c.66-.04,1.21.53,1.11,1.19-.11.65-.53,1.51-1.73,2.46,0,0-.06,2.13-1.42,3.41-1.36,1.28-3.05,1.82-3.05,1.82,0,0,.52,1.04-.38,2.21-.47.61-1.64,1.33-2.64,1.88-1.01.55-2.11.9-3.26,1.03l-7.62.89c-.96.11-1.93.03-2.86-.25-2.13-.64-5.92-1.77-5.73-1.75.26.03-2.92-11.79-2.92-11.79Z"/>
            <path class="cls-9" d="m232.13,87.96c.49,0,.94.17,1.31.44-1.09.38-1.87,1.41-1.87,2.63,0,.48.13.93.35,1.32-1.11-.11-1.99-1.04-1.99-2.18,0-1.22.99-2.21,2.21-2.21Z"/>
            <path class="cls-9" d="m257.42,91.8c.31-.61,1.12-.79,1.67-.3.28.25.41.64.33,1.01-.05.22-.16.41-.3.54-.19.19-.31.44-.35.71-.03.17-.11.34-.24.49-.23.26-.6.38-.93.31-.66-.15-.96-.85-.67-1.41.11-.21.28-.36.47-.44-.12-.28-.12-.61.03-.9Z"/>
            <path class="cls-9" d="m296.58,181.43s2.16-4.68,5.83-5.53c0,0-5.31-.37-5.83,5.53Z"/>
            <path class="cls-9" d="m203.41,180.27l-11.79-2.14s7.07-1.91,11.79,2.14Z"/>
          </g>
          <polygon class="cls-7" points="282.17 145.76 279.98 162.37 284.92 168.29 282.17 145.76"/>
          <path class="cls-14" d="m232.99,95.92s-1.93,5.66-4.72.64l4.72-.64Z"/>
        </g>
        <path class="cls-7" d="m220.03,157.9l16.29,1.46s-13.34-2.45-16.29-1.46Z"/>
      </g>
    </g>
  </g>
  <polygon class="cls-13" points="204.05 0 153.38 250 .57 250 .57 0 204.05 0"/>
  <g class="cls-22">
    <g>
      <g>
        <polygon class="cls-15" points="42.4 185.62 100.65 185.62 95.29 257.21 44.94 257.21 42.4 185.62"/>
        <path class="cls-18" d="m60.66,99.01l-32.87,12.72,21.69,34.2s61.97,2.68,62.27,2.83c.3.15,12.09-31.49,12.09-31.49l-48.03-18.26h-15.16Z"/>
        <path class="cls-8" d="m77.17,110.69c-1.88-.59-3.92-.33-5.58.73l-2.7,1.71-7.72-3.53c-1.19-.54-2.54-.61-3.78-.19l-2.84.96,12.66,3.82,13.26-2.47-3.29-1.04Z"/>
        <path class="cls-20" d="m55.14,100.95s6.55,7.3,11.92,10.13c0,0,8.79-4.37,11.47-11.13v-20.16h-24.73l1.35,21.15Z"/>
        <path class="cls-8" d="m70.67,90.47c.15-3,.35-6.76.55-10.68h-17.42l1.35,21.15s4.05,4.51,8.4,7.82l3.47-5.97c2.18-3.76,3.44-7.98,3.66-12.32Z"/>
        <path class="cls-21" d="m57.68,86.61s2.98,11.21-.89,17.17l-7,7.96-9.25-1.98s4.33-8.81,4.78-14.18,4.34-34.26,4.34-34.26c0,0,2.73-11.62,12.83-8.34,0,0,3.24-3.25,10.99-.58s14.3,16.22,14.9,23.82.89,24.43,3.87,29.94,7.45,11.77,4.77,21.15l-8.64,6.11s-9.53-11.77-11.02-26.67c-1.49-14.9-1.34-23.39-1.34-23.39l-18.32,3.24Z"/>
        <path class="cls-11" d="m53.38,80.21c1.59,0,2.88,1.29,2.88,2.88s-1.29,2.88-2.88,2.88-2.88-1.29-2.88-2.88,1.29-2.88,2.88-2.88c-1.76,0-3.18,1.42-3.18,3.18s1.42,3.18,3.18,3.18,3.18-1.42,3.18-3.18-1.42-3.18-3.18-3.18Z"/>
        <path class="cls-20" d="m61.4,56.11s-4.62,2.55-5.06,7.9c0,0-.31,4.78-2.22,7.87-.8,1.29-1.19,2.79-.98,4.29l1,7.38c.27,1.96,1.29,3.74,2.86,4.96l3.68,2.86c1.73,1.34,3.86,2.07,6.05,2.07h0c2.78,0,5.43-1.18,7.3-3.24l2.99-3.3c.99-1.1,1.64-2.46,1.87-3.92.36-2.24.6-5.57-.49-7.83-1.79-3.7-12.66-10.41-16.98-19.05Z"/>
        <path class="cls-11" d="m63.44,85.51l4.96-.25s-2.27,4.99-4.96.25Z"/>
        <path class="cls-8" d="m64.98,79.93c0-.51.25-.96.63-1.24-.04,0-.07-.01-.11-.01-.84,0-1.53.68-1.53,1.53s.68,1.53,1.53,1.53c.32,0,.62-.1.86-.27-.78-.08-1.39-.73-1.39-1.53Z"/>
        <ellipse class="cls-4" cx="60.8" cy="75.51" rx=".63" ry="1.14"/>
        <ellipse class="cls-4" cx="70.08" cy="75.51" rx=".63" ry="1.14"/>
        <path class="cls-4" d="m62.32,72.81l.07.21h-3.06c-.15,0-.3.01-.45.04l-1.54.28,1.22-.81c.35-.23.76-.37,1.18-.4l1.38-.11c.53-.04,1.02.28,1.19.78Z"/>
        <path class="cls-4" d="m68.23,72.91l-.06.22,3.05-.25c.15-.01.3-.01.46,0l1.55.16-1.29-.7c-.37-.2-.79-.31-1.21-.31h-1.39c-.53,0-.99.36-1.13.88Z"/>
        <path class="cls-6" d="m73.99,67.28s3.8,4.19,7.37,7.57c3.58,3.38,2.93,8.7-2.18,12.71,0,0,6.58-5.38,2.63-11.34l-7.82-8.94Z"/>
        <path class="cls-6" d="m85.01,81.74s-.88,8.71-6.21,9.68c0,0,5.17-1.92,6.21-9.68Z"/>
      </g>
      <g>
        <g>
          <path class="cls-10" d="m107.28,71.98s-5.96,1.26-7.9,6.69c-1.35,3.8-.82,22.23-.37,33.01.22,5.2-1.02,10.36-3.57,14.91l-1.58,2.81,52.59-3.13s5.51-7,4.17-12.07c-1.34-5.06-8.64-11.75-9.24-21.37,0,0,5.13-6.26-.32-11.06-1.21-1.06-2.28-2.26-3.1-3.65-2.34-3.98-7.4-11.66-12.22-13.09-6.55-1.94-12.36-1.92-18.47,6.94Z"/>
          <path class="cls-21" d="m97.75,189.39c-.67-.33-10.28,17.1-10.28,17.1,0,0-3.28,5.14-3.09,13.85.19,8.71,3.54,37.23,3.54,37.23h72.62v-38.55l-3.13-17.65s-7.1-11.45-6.57-10.65c.53.79-53.09-1.33-53.09-1.33Z"/>
          <path class="cls-11" d="m120.69,114.2l-28.3,13.11s-9.45,2.45-10.73,8.34l-9.09,49.97-2.11,11.76c-.55,3.09.71,6.21,3.25,8.05,5.44,3.95,15.97,10.78,29.85,15.88,0,0,5.81-7.6,1.04-16.98l-11.02-8.34,3.94,2.13c2.11,1.14,4.46,1.76,6.86,1.81l20.63.38,16.66,1.74c2.18.23,4.37-.02,6.44-.74l1.18-.41-5.06,4.77s-1.64,8.04,1.34,15.64c0,0,18.44-12.15,26.83-21.49,2.23-2.49,3.24-5.84,2.74-9.14l-8.71-57.11s-1.19-5.51-6.41-6.55l-39.33-12.81Z"/>
          <path class="cls-18" d="m110.82,117.12s-4.55.9-7.64,5.2l-4.54,11,6.09-1.23v4.58s14.56,3.69,16.7,8.94c0,0,2.46-8.27,15.64-11.34l-.97-3.97,7.45,1.56-2.67-11.07s-1.68-4.01-7.83-4.23l-22.23.57Z"/>
          <path class="cls-20" d="m107.28,93.44l2.83,26.12h0c-.94.69-1.37,1.88-1.11,3.02.39,1.71,1.29,4.44,3.34,7.86,3.58,5.96,7.75,12.38,7.75,12.38,0,0,14-14.02,15.64-21.17v-.25c0-1.12-.64-2.14-1.65-2.63l-.21-.1-.97-27.26-25.62,2.03Z"/>
          <path class="cls-8" d="m123.84,117.27l4.84-25.53-21.4,1.7,2.83,26.12c-.94.69-1.37,1.88-1.11,3.02.39,1.71,1.29,4.44,3.34,7.86.77,1.28,1.56,2.57,2.33,3.82.49-.54.97-1.06,1.44-1.56,3.97-4.32,6.65-9.66,7.73-15.42Z"/>
          <path class="cls-20" d="m133.32,93.44v-4.07s-6.97-1.43-8.76-8.86c-1.79-7.43-6.22-9.1-11.02-7.04,0,0-7.3.57-8.19,8.88l1.03,11.25c-1.09.38-1.88,1.4-1.88,2.62,0,1.4,1.04,2.55,2.39,2.75.37,3,1.78,5.78,4,7.85l3.85,3.57c1.81,1.68,4.2,2.62,6.67,2.62,3.27,0,6.33-1.63,8.15-4.35l1.59-2.38c1.41-2.11,2.17-4.6,2.17-7.14v-.12c1.54,0,2.79-1.25,2.79-2.79s-1.25-2.79-2.79-2.79Z"/>
          <path class="cls-11" d="m120.31,103.99c-1.09,0-1.84-.35-1.9-.37l.39-.82c.09.04,2.11.95,4.26-.68l.54.72c-1.19.91-2.36,1.15-3.29,1.15Z"/>
          <path class="cls-18" d="m91.94,163.51s.15,10.07,11.17,12.41l9.53,1.15-7.35.53c-3.15.23-6.32-.59-8.85-2.47-2.81-2.09-5.4-5.66-4.51-11.62Z"/>
          <path class="cls-18" d="m153.82,160.7s-.15,10.07-11.17,12.41l-9.53,1.15,7.35.53c3.15.23,6.32-.59,8.85-2.47,2.81-2.09,5.4-5.66,4.51-11.62Z"/>
          <path class="cls-18" d="m121.43,145.6l1.05,9.1c.21,1.8.31,3.61.31,5.43v17.51l-2.71-34.81,1.34,2.78Z"/>
          <path class="cls-18" d="m92.69,170.51l-.93,22.64s-.37,1.18,1.82,2.83l-.89-25.47Z"/>
          <path class="cls-18" d="m152.53,168.76l3.31,24.1-7.74,8.45,2.66-4.28c2.1-3.37,3.09-7.32,2.84-11.28l-1.08-16.99Z"/>
          <path class="cls-11" d="m162.85,189.98s-3.86-.55-7,2.88c0,0,2.38-5.17,7-2.88Z"/>
          <path class="cls-11" d="m91.76,193.16s-2.95-3.62-6.23-2.03c0,0,1.58-.35,6.23,2.03Z"/>
          <g>
            <path class="cls-18" d="m118.3,197.94l13.16.44c.05-.55-.35-1.08-.96-1.11l-13.22-.71c-1.11-.06-2.18.43-2.86,1.3l-10.19,12.98h2.16l9.21-11.65c.65-.82,1.66-1.29,2.71-1.25Z"/>
            <path class="cls-11" d="m118.3,197.94c-1.05-.04-2.05.43-2.71,1.25l-9.21,11.65h17.39l7.53-12c.09-.15.13-.3.15-.46l-13.16-.44Z"/>
          </g>
          <path class="cls-20" d="m112.26,204.19l10.1,3.86,7.72-.89s-2.12-2-.85-4.91c.35-.81,1.35-1.11,2.11-.66l4.77,2.85,8.12,1.23s3.87.55,2.83,7.43l-1.04,3.75-6.11,2.18-20.19-.62c-1.58-.05-3.1-.66-4.27-1.72l-6.97-6.29s.45-1.42,2.38-.46l3.87,1.7-3.28-3.38c-.81-.84-1.03-2.08-.55-3.15l.19-.43c.2-.44.71-.65,1.16-.48Z"/>
          <path class="cls-20" d="m121.17,205.9l-8.52.22-7.3.89.64-.49c.61-.46,1.31-.78,2.06-.93l2.5-.49c.23,0,.46-.06.65-.2,1.07-.8,1.43-1.8,1.45-2.76.01-.59-.45-1.11-1.04-1.16l-2.18-.16c-1.89-.14-3.79.24-5.47,1.11l-3.23,1.66s-5.54,5.66,1.47,14.75l10.44-.6,14.3-6.78-5.78-5.06Z"/>
        </g>
        <path class="cls-8" d="m119.74,97.23c0-.58.28-1.09.72-1.41-.04,0-.08-.01-.12-.01-.96,0-1.74.78-1.74,1.74s.78,1.74,1.74,1.74c.37,0,.7-.11.98-.31-.89-.09-1.58-.84-1.58-1.75Z"/>
        <ellipse class="cls-4" cx="114.98" cy="92.84" rx=".71" ry="1.29"/>
        <ellipse class="cls-4" cx="124.83" cy="92.19" rx=".71" ry="1.29"/>
        <path class="cls-10" d="m111.46,89.72s3.07-2.19,4.92-.37l-4.92.37Z"/>
        <path class="cls-10" d="m128.24,88.84s-3.37-1.68-4.92.41l4.92-.41Z"/>
        <path class="cls-16" d="m117.47,98.39l-1.26,2.25c-.57,1.02-.87,2.16-.87,3.32v2.58l.25-3.15c.06-.82.28-1.63.63-2.38l1.24-2.63Z"/>
        <path class="cls-16" d="m124.48,98.39l1.26,2.25c.57,1.02.87,2.16.87,3.32v2.58s-.25-3.15-.25-3.15c-.06-.82-.28-1.63-.63-2.38l-1.24-2.63Z"/>
        <path class="cls-16" d="m119.12,114.58c.03-.23,0,6.24,2.38,8.93,0,0-3.28-2.53-2.38-8.93Z"/>
        <circle class="cls-11" cx="133.99" cy="98.42" r=".87"/>
        <circle class="cls-11" cx="105.84" cy="98.42" r=".87"/>
        <path class="cls-3" d="m141.69,87.56s.74,5.87-4.77,6.57c0,0,4.54-.9,4.77-6.57Z"/>
        <path class="cls-3" d="m125.55,80.21s1.26,6.88,9.32,8.42c0,0-6.77-1.23-9.32-8.42Z"/>
        <path class="cls-3" d="m107.28,74.77s2.21-6.53,7.7-8.46c0,0-4.42,2.55-7.7,8.46Z"/>
      </g>
      <g>
        <g>
          <path class="cls-21" d="m-6.6,229.25v13.07c0,1.25-.06,2.49-.17,3.73-.26,2.85-.66,8.66.17,11.53h77.39v-33.14l-77.39,4.81Z"/>
          <path class="cls-19" d="m22.97,102.73c-.45,0-31.73,16.83-31.73,16.83,0,0-6.7,2.83-8.49,9.83l-7.54,43.5c-.13.78-.06,1.58.22,2.32l.76,2-.57,1.8c-.37,1.17,0,2.44.94,3.22l.23.19s-2.23,4.92.3,5.81l.15,6.11,5.54,6.45c.54.63,1.35.94,2.17.84l10.46-1.32-3.28,31.73s13.7,13.56,20.41,16.54c5.51,2.45,13.42,1.68,16.08,1.33.63-.08,1.26-.11,1.89-.08,3.57.17,15.99.44,22.7-3.48,7.9-4.62,19.51-16.83,19.51-16.83l-1.94-20.41,7.75-10.38c.39-.52.71-1.1.94-1.71l3.97-10.55v-2.68s1.04-2.23.89-3.13-.74-4.92-.74-4.92c0,0,.92-4.32.76-4.92s-6.27-46.48-6.27-46.48c0,0-1.94-8.34-8.49-10.87l-33.07-11.92-13.56,1.19Z"/>
          <path class="cls-7" d="m-5.97,213.62l16.01,13.87,6.3,13.02c.43.88,1.16,1.57,2.06,1.95l.05.02c1.03.43,2.19.42,3.21-.03l4.25-1.88,6.59,3.09h10.84l16.81-7.64c2.07-.94,3.76-2.54,4.82-4.55l6.56-12.44-.58-8.18-13.98,12.63-15.98-31.54-46.03,14.55-.93,7.14Z"/>
          <path class="cls-11" d="m1.28,201.32l16.41,38.27c.34.78,1.22,1.17,2.02.89l33.63-11.62c.87-.3,1.31-1.26.99-2.11l-15.35-40.08c-.32-.84-1.26-1.26-2.1-.93l-34.69,13.43c-.86.33-1.27,1.31-.91,2.15Z"/>
          <path class="cls-7" d="m15.85,100.46l-1.47,1.13c-.64.5-1.09,1.2-1.27,1.98l-.63,2.7c-.32,1.38-.02,2.84.84,3.97l7,9.31,3.92-3.73c.42-.4,1.09-.36,1.46.08l3.07,3.65,3.99-4.83c.35-.42.97-.49,1.4-.15l3.59,2.85s4.53-6.08,6.07-11.09c.36-1.17.19-2.43-.47-3.46l-.73-1.14c-.74-1.15-2.02-1.84-3.39-1.81l-23.38.51Z"/>
          <path class="cls-20" d="m12.39,76.52l2.11,24.67c.17,2.04,1.15,3.92,2.72,5.24l9.62,8.08,1.94,5.06,2.23-6.85s7.3-3.87,8.79-10.13v-28.01l-27.41,1.94Z"/>
          <path class="cls-8" d="m30.29,95.12c.39-5.52.92-13.2,1.39-19.97l-19.29,1.36,2.11,24.67c.17,2.04,1.15,3.92,2.72,5.24l6.32,5.31,1.91-2.78c2.82-4.09,4.48-8.87,4.83-13.82Z"/>
          <path class="cls-20" d="m44.27,80.98c0-2.11-1.46-3.87-3.43-4.34v-10.41s1.19-10.87-8.79-12.22l-16.98,1.34s-6.41.74-5.96,10.87l1.34,10.72c-1.5.72-2.54,2.25-2.54,4.02,0,2.21,1.6,4.04,3.7,4.4.8,3.46,2.53,6.64,5.03,9.19l1.7,1.72c1.71,1.74,4.05,2.71,6.48,2.71h3.37c2.72,0,5.3-1.22,7.02-3.31l1.22-1.48c2.11-2.56,3.5-5.6,4.08-8.83,2.12-.35,3.74-2.19,3.74-4.4Z"/>
          <path class="cls-7" d="m28.78,119.57v6.17c0,.65-.06,1.3-.18,1.94l-.9,4.88.48,12.04s.34,29.16.6,29.05-1.64-30.82-1.64-30.82l-.35-9.07c-.07-1.78.06-3.56.38-5.31l1.61-8.87Z"/>
          <path class="cls-20" d="m-15.43,200.57s3.35-10.39,17.09-8.49l21.91,27.93-8.61,8.94-30.39-28.38Z"/>
          <path class="cls-21" d="m10.46,76.96s-.29-3.54,1.49-5.89c.76-1,1.12-2.26.87-3.49l-.96-4.66s-.03-4.25,1.98-4.58c0,0,3.8,1.9,6.26,0,0,0,5.47.78,6.59-.78h6.7l1.79-.78s3.13.11,3.69,3.24c.31,1.72.07,3.62-.2,4.99-.22,1.12-.01,2.3.65,3.23.72,1.01,1.52,2.44,1.52,3.85v4.56s1.73.42,2.39,1.49l.77-14.66s-.11-9.46-6.03-9.46c0,0-.78-3.39-5.14-4.06-2.97-.46-5.88-.96-7.44-1.24-.75-.13-1.52.04-2.14.48l-.92.65s-3.13-.89-4.25.89c0,0-3.13-.89-4.25,1.56,0,0-3.8.47-5,2.74-.19.35-.18.77-.02,1.14l.45,1.04s-1.9,2.9-1.34,7.15,1.03,13.76,1.03,13.76l1.5-1.18Z"/>
          <g>
            <path class="cls-20" d="m9.22,77.86c-.8.81-1.3,1.9-1.3,3.13,0,2.21,1.6,4.04,3.7,4.4l-2.33-7.49-.08-.04Z"/>
            <path class="cls-20" d="m44.27,80.98c0-1.08-.39-2.07-1.03-2.84l-2.7,7.25c2.12-.35,3.74-2.19,3.74-4.4Z"/>
            <path class="cls-21" d="m40.84,76.64l-.02,1.83c-.03,2.52-1.26,4.87-3.32,6.33l-1.76,1.25c-.11-2.23-2.46-3.13-2.46-3.13l-6.02-.46c-.93-.07-1.87-.05-2.79.08-1.6.22-4.13.61-5.38,1.05-1.9.67-2.79,3.8-2.79,3.8l-2.54-1.64c-.59-.38-1-.98-1.14-1.66l-1.39-6.67c-.09-.42-.22-.84-.4-1.23l-.63-1.38.27,2.15c-.47.22-.88.53-1.24.9l.08.04,2.33,7.49c.8,3.46,2.53,6.64,5.03,9.19l1.7,1.72c1.71,1.74,4.05,2.71,6.48,2.71h3.37c2.72,0,5.3-1.22,7.02-3.31l1.22-1.48c2.11-2.56,3.5-5.6,4.08-8.83l2.7-7.25c-.61-.73-1.44-1.27-2.39-1.5Z"/>
          </g>
          <path class="cls-11" d="m22.92,86.91l5.98-.3s-2.74,6.02-5.98.3Z"/>
          <path class="cls-8" d="m24.78,80.18c0-.61.3-1.16.76-1.5-.04,0-.08-.01-.13-.01-1.02,0-1.84.82-1.84,1.84s.82,1.84,1.84,1.84c.39,0,.74-.12,1.04-.32-.94-.1-1.67-.88-1.67-1.85Z"/>
          <ellipse class="cls-4" cx="19.74" cy="74.85" rx=".75" ry="1.37"/>
          <ellipse class="cls-4" cx="30.92" cy="74.85" rx=".75" ry="1.37"/>
          <path class="cls-4" d="m21.57,71.6l.09.26h-3.69c-.18,0-.37.02-.55.05l-1.85.34,1.48-.97c.42-.28.91-.45,1.42-.49l1.66-.13c.64-.05,1.23.34,1.44.94Z"/>
          <path class="cls-4" d="m28.7,71.72l-.07.27,3.68-.3c.18-.01.37-.01.55,0l1.87.19-1.55-.85c-.45-.24-.95-.37-1.45-.37h-1.67c-.64,0-1.2.44-1.36,1.06Z"/>
          <path class="cls-7" d="m-.42,146.6l-1.04,31.95-.19.3c-.46.72-.41,1.64.13,2.3s1.01,1.55.66,2.41c-.26.63-.25,1.33.11,1.9l2.68,4.18c.41.64.63,1.37.63,2.13v1.44l2.56,3.26-4.36-18.57c-.19-.81-.3-1.63-.32-2.46l-.86-28.85Z"/>
          <path class="cls-20" d="m14.48,226.34l.44,2.64,9.08,7.23c1.95,1.56,4.33,2.49,6.82,2.68l7.95.6,6.16-6.02-11.98-8.21,3.08,1.37s2.23,1.75,4.63,1.1c.6-.16,1.02-.69,1.1-1.31h0c.06-.46-.15-.91-.53-1.17l-5.4-3.68-3.31-1.59c-1.46-.71-3.09-1.02-4.71-.9l-5.98.43-7.36,6.86Z"/>
          <path class="cls-8" d="m40.99,231.14l-6.14,4.39-3-.97s-3.29-.28-4.13,1.69l15.18,4.75,10.5-8.49-12.4-1.38Z"/>
          <path class="cls-7" d="m64.83,145.93l-.74,3.13c-.4,1.68-.57,3.41-.52,5.13l.56,18.55c.02.6-.03,1.19-.14,1.78l-.51,2.69.67,2.33-.67,2.74-2.09,8.94.74,3.87-1.13-2.32c-.91-1.87-1.13-4-.62-6.01l1.82-7.22.82-9.03-.62-14.11c-.13-3.06.45-6.12,1.71-8.91l.7-1.55Z"/>
          <path class="cls-20" d="m62.94,192.14l-11.23,34.98,11.62,4.02,16.14-34.14s-4.18-9.36-14.86-6.48c-.79.21-1.42.83-1.67,1.62Z"/>
          <path class="cls-20" d="m53.8,225.48l-4.27,1.35c-.92.29-1.8.71-2.6,1.25l-8.32,5.59c-.97.65-1.15,2.06-.29,2.85.58.53,1.45.91,2.78.69l-6.21.06-3.21-1.51s-1.97-1.19-2.88.89c0,0-.47-.29-1.09-.39-1.14-.18-1.77,1.28-.85,1.97l4.91,3.69c.47.36,1.05.55,1.64.55h1.77l1.79,1.19h7.71c1.38,0,2.74-.39,3.91-1.13l11.08-6.97c1.04-.65,1.91-1.54,2.55-2.59l1.12-1.83-9.53-5.66Z"/>
          <path class="cls-7" d="m62.48,145.93s-1.08-8.49,1.45-10.28l-1.45,10.28Z"/>
          <path class="cls-7" d="m-1.97,139.23s4.47,4.91,3.11,9.53l-3.11-9.53Z"/>
        </g>
        <path class="cls-7" d="m66.02,181.37s11.61-2.48,14.3,1.88c0,0-2.35-5.43-14.3-1.88Z"/>
        <path class="cls-7" d="m68.7,178.82s9.5-5.44,12.74,0c0,0-2.9-3.65-12.74,0Z"/>
        <path class="cls-8" d="m41.1,237.21l9.5-3.91s-7.18,1.64-9.5,3.91Z"/>
      </g>
    </g>
  </g>
  <g>
    <g>
      <path class="cls-21" d="m198.71,175.07l-22.14,20.17c-2.85,2.6-7.12,2.6-9.97,0l-22.14-20.17c-1.63-1.49-2.57-3.64-2.57-5.89v-35.55c0-3.91,2.77-7.22,6.5-7.76l22.14-3.26c.7-.1,1.42-.1,2.12,0l22.14,3.26c3.73.55,6.5,3.86,6.5,7.76v35.55c0,2.26-.94,4.4-2.57,5.89Z"/>
      <path class="cls-4" d="m196.26,175.07l-22.14,20.17c-2.85,2.6-7.12,2.6-9.97,0l-22.14-20.17c-1.63-1.49-2.57-3.64-2.57-5.89v-35.55c0-3.91,2.77-7.22,6.5-7.76l22.14-3.26c.7-.1,1.42-.1,2.12,0l22.14,3.26c3.73.55,6.5,3.86,6.5,7.76v35.55c0,2.26-.94,4.4-2.57,5.89Z"/>
      <path class="cls-15" d="m191.1,172.5l-17.92,16.95c-2.31,2.18-5.76,2.18-8.07,0l-17.92-16.95c-1.32-1.25-2.08-3.06-2.08-4.95v-29.88c0-3.28,2.24-6.06,5.26-6.53l17.92-2.74c.57-.09,1.15-.09,1.72,0l17.92,2.74c3.02.46,5.26,3.24,5.26,6.53v29.88c0,1.9-.76,3.7-2.08,4.95Z"/>
      <path class="cls-15" d="m189.44,171.47l-16.57,15.74c-2.14,2.03-5.33,2.03-7.47,0l-16.57-15.74c-1.22-1.16-1.92-2.84-1.92-4.6v-27.74c0-3.05,2.07-5.63,4.86-6.06l16.57-2.54c.53-.08,1.06-.08,1.59,0l16.57,2.54c2.79.43,4.86,3.01,4.86,6.06v27.74c0,1.76-.7,3.44-1.92,4.6Z"/>
    </g>
    <path class="cls-17" d="m167.87,168.62h0c-.8,0-1.56-.32-2.12-.88l-6.4-6.4c-1.17-1.17-1.17-3.07,0-4.24,1.17-1.17,3.07-1.17,4.24,0l4.28,4.28,12.84-12.84c1.17-1.17,3.07-1.17,4.24,0,1.17,1.17,1.17,3.07,0,4.24l-14.96,14.96c-.56.56-1.33.88-2.12.88Z"/>
  </g>
</svg>