<svg width="450" height="261" viewBox="0 0 450 261" fill="none" xmlns="http://www.w3.org/2000/svg">
<g clip-path="url(#clip0_1130_1170)">
<path d="M401.731 27.8506H138.119C127.954 27.8506 118.52 30.9933 110.745 36.362C101.823 42.5208 91.1642 45.6696 80.3244 45.6696H78.3398C35.0771 45.6696 0 80.7467 0 124.015C0 155.473 18.5429 182.594 45.2895 195.062C51.7802 198.085 55.7131 204.726 55.695 211.886V212.019C55.695 238.675 77.3023 260.288 103.964 260.288H367.576C394.233 260.288 415.846 238.675 415.846 212.019C415.846 185.363 394.239 163.749 367.576 163.749C359.548 163.749 353.829 155.92 356.314 148.283C357.738 143.916 358.782 139.385 359.421 134.723C360.229 128.823 365.206 124.396 371.16 124.396H401.737C428.393 124.396 450.006 102.782 450.006 76.1261C450.006 49.4699 428.399 27.8566 401.737 27.8566" fill="#FBE3D9"/>
<mask id="mask0_1130_1170" style="mask-type:luminance" maskUnits="userSpaceOnUse" x="0" y="-1" width="451" height="262">
<path d="M359.421 134.711C360.229 128.811 365.206 124.384 371.16 124.384H401.737C428.393 124.384 450.006 102.77 450.006 76.1141C450.006 49.458 428.399 27.8447 401.737 27.8447H329.326C325.894 11.9258 311.743 -0.00585938 294.792 -0.00585938H238.627C221.682 -0.00585938 207.531 11.9258 204.092 27.8447H138.119C127.954 27.8447 118.52 30.9874 110.745 36.3561C101.823 42.5149 91.1642 45.6637 80.3244 45.6637H78.3398C35.0771 45.6697 0 80.7468 0 124.016C0 155.473 18.5429 182.594 45.2895 195.063C51.7802 198.085 55.7131 204.726 55.695 211.886V212.019C55.695 238.675 77.3023 260.288 103.964 260.288H367.576C394.233 260.288 415.846 238.675 415.846 212.019C415.846 185.363 394.239 163.75 367.576 163.75C359.548 163.75 353.829 155.92 356.314 148.283C357.738 143.916 358.782 139.386 359.421 134.723V134.711Z" fill="white"/>
</mask>
<g mask="url(#mask0_1130_1170)">
<path d="M348.883 284.695L337.838 244.297C341.451 239.472 341.686 232.667 337.964 227.528L330.382 217.05L285.587 53.2222C282.752 42.8408 272.033 36.7302 261.651 39.5653L211.856 53.18L209.063 49.3194C204.484 42.9856 195.635 41.568 189.301 46.1464L159.961 67.3676L107.21 81.7905C96.8283 84.6317 90.7177 95.3448 93.5528 105.726L95.7606 113.803L68.0488 133.848C61.715 138.427 60.2974 147.276 64.8758 153.61L132.032 246.457L156.842 337.199C159.677 347.58 170.397 353.691 180.778 350.856L327.927 310.621L335.22 308.624C345.601 305.783 351.712 295.07 348.876 284.689L348.883 284.695Z" fill="#FCD2C5"/>
<path d="M178.666 282.819L190.351 325.545C193.403 336.71 204.931 343.285 216.09 340.233L352.212 303.015C363.378 299.962 369.953 288.435 366.9 277.275L298.815 28.2974C295.763 17.1318 284.236 10.5567 273.076 13.609L114.798 56.8899C103.632 59.9421 97.0572 71.4696 100.11 82.6291L145.87 249.974C147.335 255.336 150.87 259.897 155.702 262.647L168.834 270.139C173.66 272.896 177.195 277.45 178.666 282.813V282.819Z" fill="#0A1830"/>
<path d="M242.089 42.1715L277.781 32.4114C282.92 31.0059 288.229 34.0341 289.634 39.1735L319.27 147.566L250.727 166.308L242.083 42.1715H242.089Z" fill="#FFD2C2"/>
<path d="M235.297 49.983L270.989 40.2229C276.128 38.8175 281.437 41.8456 282.842 46.985L312.478 155.377L243.935 174.119L235.291 49.983H235.297Z" fill="#FDF7F4"/>
<path d="M280.496 79.2268L268.811 36.501C265.759 25.3354 254.232 18.7604 243.072 21.8126L106.95 59.0311C95.7846 62.0834 89.2096 73.6109 92.2619 84.7704L160.341 333.742C163.393 344.908 174.921 351.483 186.08 348.431L344.358 305.15C355.524 302.098 362.099 290.57 359.047 279.411L313.287 112.066C311.821 106.703 308.286 102.143 303.454 99.3924L290.322 91.9004C285.496 89.1437 281.962 84.5894 280.49 79.2268H280.496Z" fill="#EC6625"/>
<path d="M195.251 20.6881L64.8362 115.023C58.0231 119.951 56.4951 129.469 61.4233 136.282L200.067 327.952C204.996 334.765 214.514 336.293 221.327 331.365L351.741 237.03C358.554 232.102 360.082 222.584 355.154 215.771L216.51 24.1009C211.582 17.2878 202.064 15.7599 195.251 20.6881Z" fill="white"/>
<path d="M234.777 82.9676L111.484 172.151L114.85 176.804L238.143 87.6205L234.777 82.9676Z" fill="#FFD2C2"/>
<path d="M198.748 126.19L119.653 183.403L123.019 188.056L202.114 130.843L198.748 126.19Z" fill="#FFD2C2"/>
<path d="M266.564 126.786L178.96 190.155L182.326 194.808L269.93 131.439L266.564 126.786Z" fill="#203254"/>
<path d="M155.66 221.116L146.763 219.686C145.562 219.493 144.748 218.365 144.941 217.165C145.134 215.964 146.262 215.15 147.462 215.343L152.017 216.073L154.315 201.759C154.508 200.558 155.636 199.744 156.836 199.937C158.037 200.13 158.851 201.258 158.658 202.458L155.66 221.116Z" fill="#EC6625"/>
<path d="M289.279 158.189L201.675 221.558L205.041 226.211L292.645 162.842L289.279 158.189Z" fill="#203254"/>
<path d="M178.377 252.525L169.48 251.096C168.28 250.902 167.465 249.774 167.658 248.574C167.851 247.374 168.979 246.559 170.18 246.752L174.734 247.482L177.032 233.168C177.225 231.968 178.353 231.153 179.554 231.346C180.754 231.539 181.568 232.667 181.375 233.868L178.377 252.525Z" fill="#EC6625"/>
<path d="M311.999 189.593L224.395 252.961L227.761 257.614L315.365 194.246L311.999 189.593Z" fill="#203254"/>
<path d="M164.654 91.9487C163.11 83.3107 166.645 74.178 174.402 68.9782C182.159 63.7785 191.95 63.9836 199.351 68.6947L203.29 66.0526C194.302 59.3992 181.761 58.7115 171.935 65.2926C162.109 71.8737 157.976 83.7329 160.709 94.5788L164.648 91.9367L164.654 91.9487Z" fill="#EC6625"/>
<path d="M209.546 83.9137C211.084 92.5518 207.555 101.684 199.798 106.884C192.04 112.084 182.25 111.879 174.849 107.168L170.91 109.81C179.898 116.463 192.438 117.151 202.265 110.57C212.091 103.989 216.223 92.1295 213.491 81.2837L209.552 83.9197L209.546 83.9137Z" fill="#EC6625"/>
<path d="M153.567 113.954C153.326 114.286 153.006 114.593 152.602 114.871C151.836 115.396 151.094 115.565 150.376 115.39C149.658 115.209 149.013 114.702 148.433 113.858C147.86 113.013 147.619 112.229 147.716 111.499C147.812 110.769 148.24 110.142 149.007 109.617C149.411 109.339 149.809 109.152 150.213 109.05C150.611 108.947 151.088 108.911 151.631 108.947L151.226 107.132C150.696 107.053 150.147 107.096 149.574 107.252C149.001 107.409 148.433 107.681 147.866 108.067C146.992 108.664 146.364 109.352 145.972 110.13C145.586 110.908 145.435 111.722 145.526 112.579C145.616 113.435 145.96 114.292 146.545 115.148C147.131 116.005 147.806 116.638 148.578 117.037C149.344 117.435 150.159 117.598 151.027 117.513C151.89 117.435 152.759 117.091 153.633 116.494C154.2 116.108 154.659 115.673 155.009 115.197C155.358 114.714 155.6 114.22 155.726 113.701L154.182 112.663C154.019 113.188 153.814 113.616 153.573 113.948L153.567 113.954Z" fill="#0A1830"/>
<path d="M158.302 110.883L153.754 104.23L151.944 105.467L157.536 113.64L163.031 109.882L161.994 108.362L158.302 110.883Z" fill="#0A1830"/>
<path d="M161.198 99.1391L163.032 109.888L164.853 108.646L164.407 106.341L168.273 103.699L170.258 104.948L172.092 103.693L162.694 98.1196L161.198 99.1451V99.1391ZM163.285 100.502L166.753 102.692L164.057 104.538L163.243 100.532L163.291 100.502H163.285Z" fill="#0A1830"/>
<path d="M169.012 93.778L167.205 95.0142L172.797 103.19L174.604 101.954L169.012 93.778Z" fill="#0A1830"/>
<path d="M177.581 87.9313L179.004 95.7128L172.272 91.5627L170.686 92.6485L176.278 100.828L177.919 99.7001L174.848 95.2061L179.988 98.2886L181.031 97.5768L180 91.617L183.106 96.1532L184.753 95.0312L179.161 86.8516L177.581 87.9313Z" fill="#0A1830"/>
<path d="M192.806 83.8534C192.185 83.7449 191.443 83.8715 190.568 84.2395L189.042 84.891C188.572 85.084 188.21 85.1685 187.95 85.1383C187.691 85.1081 187.48 84.9754 187.323 84.7402C187.112 84.4325 187.076 84.0947 187.226 83.7388C187.371 83.3769 187.697 83.027 188.197 82.6832C188.674 82.3575 189.157 82.1222 189.633 81.9835C190.11 81.8447 190.598 81.7904 191.087 81.8327L190.719 80.1437C190.188 80.0652 189.615 80.1135 189 80.2945C188.385 80.4754 187.787 80.765 187.208 81.1631C186.527 81.6276 186.008 82.1403 185.652 82.7073C185.296 83.2683 185.109 83.8414 185.091 84.4205C185.079 84.9995 185.248 85.5485 185.61 86.0733C186.032 86.6946 186.557 87.0565 187.184 87.1772C187.811 87.2918 188.547 87.1772 189.404 86.8152L190.96 86.1577C191.443 85.9647 191.805 85.8802 192.052 85.8983C192.299 85.9164 192.504 86.0491 192.667 86.2844C192.848 86.5438 192.878 86.8454 192.758 87.1772C192.637 87.5089 192.299 87.8648 191.744 88.2449C191.389 88.4861 191.027 88.6912 190.659 88.842C190.291 88.9989 189.917 89.1135 189.537 89.1919C189.157 89.2703 188.777 89.3065 188.391 89.3126L188.825 91.092C189.422 91.1041 190.061 90.9955 190.749 90.7663C191.431 90.5371 192.1 90.1993 192.758 89.7469C193.439 89.2824 193.952 88.7697 194.308 88.2147C194.664 87.6597 194.845 87.0987 194.863 86.5317C194.875 85.9647 194.712 85.4278 194.362 84.9151C193.952 84.3119 193.433 83.956 192.812 83.8474L192.806 83.8534Z" fill="#0A1830"/>
<path d="M198.103 83.8354L196.709 81.7966L200.383 79.2811L199.418 77.8696L195.738 80.385L194.429 78.4668L198.386 75.7644L197.427 74.3589L191.745 78.2496L197.336 86.4232L203.019 82.5385L202.06 81.133L198.103 83.8354Z" fill="#0A1830"/>
<path d="M204.985 69.189L197.982 73.9785L198.989 75.4564L201.589 73.6769L206.174 80.3786L207.983 79.142L203.399 72.4403L205.999 70.6608L204.985 69.189Z" fill="#0A1830"/>
<path d="M212.435 64.0981L205.432 68.8877L206.439 70.3595L209.033 68.5861L213.617 75.2878L215.427 74.0512L210.842 67.3495L213.442 65.57L212.435 64.0981Z" fill="#0A1830"/>
<path d="M219.782 69.0141L218.382 66.9753L222.062 64.4599L221.091 63.0423L217.417 65.5577L216.108 63.6455L220.059 60.9431L219.1 59.5376L213.418 63.4223L219.01 71.6019L224.692 67.7172L223.733 66.3117L219.782 69.0141Z" fill="#0A1830"/>
<path d="M230.417 61.5705L226.725 64.092L222.177 57.4385L220.367 58.6751L225.959 66.8487L231.454 63.0906L230.417 61.5705Z" fill="#0A1830"/>
<path d="M196.932 127.671L192.987 121.73C183.064 123.455 172.749 120.722 164.955 114.141L159.267 118.02C169.419 127.412 183.661 130.953 196.926 127.671H196.932Z" fill="#EC6625"/>
<path d="M158.254 69.3641L154.309 63.4224C145.918 74.6543 143.747 89.6201 148.946 102.873L154.623 98.9639C151.238 89.0048 152.656 78.0745 158.254 69.3641Z" fill="#EC6625"/>
<path d="M177.267 48.1913L181.212 54.133C191.039 52.4259 201.269 55.0861 209.033 61.5345L214.697 57.6377C204.563 48.4024 190.435 44.9339 177.267 48.1913Z" fill="#EC6625"/>
<path d="M215.946 106.498L219.891 112.44C228.276 101.214 230.447 86.2605 225.266 73.0078L219.577 76.8865C222.967 86.8456 221.55 97.7819 215.946 106.492V106.498Z" fill="#EC6625"/>
</g>
</g>
<defs>
<clipPath id="clip0_1130_1170">
<rect width="450" height="260.276" fill="white"/>
</clipPath>
</defs>
</svg>
