<svg width="30" height="34" viewBox="0 0 30 34" fill="none" xmlns="http://www.w3.org/2000/svg">
<path d="M6.89962 14.773C8.2791 14.773 9.39738 13.6523 9.39738 12.2699C9.39738 10.8875 8.2791 9.76685 6.89962 9.76685C5.52014 9.76685 4.40186 10.8875 4.40186 12.2699C4.40186 13.6523 5.52014 14.773 6.89962 14.773Z" stroke="#005F93" stroke-width="1.5" stroke-linecap="round" stroke-linejoin="round"/>
<path d="M3.37129 26.366H2.95395C1.87264 26.366 1 25.5551 1 24.5504V19.0154C1 17.4936 2.32793 16.2596 3.9657 16.2596H8.19609" stroke="#005F93" stroke-width="1.5" stroke-linecap="round" stroke-linejoin="round"/>
<path d="M3.5293 19.074V32.9996" stroke="#005F93" stroke-width="1.5" stroke-linecap="round" stroke-linejoin="round"/>
<path d="M10.6489 5.63012C11.9201 5.63012 12.9506 4.59363 12.9506 3.31506C12.9506 2.03649 11.9201 1 10.6489 1C9.37769 1 8.34717 2.03649 8.34717 3.31506C8.34717 4.59363 9.37769 5.63012 10.6489 5.63012Z" stroke="#005F93" stroke-width="1.5" stroke-linecap="round" stroke-linejoin="round"/>
<path d="M6.00879 7.73939C6.50202 7.28108 7.19128 6.99316 7.95009 6.99316H11.877" stroke="#005F93" stroke-width="1.5" stroke-linecap="round" stroke-linejoin="round"/>
<path d="M18.9966 5.63012C20.2678 5.63012 21.2983 4.59363 21.2983 3.31506C21.2983 2.03649 20.2678 1 18.9966 1C17.7253 1 16.6948 2.03649 16.6948 3.31506C16.6948 4.59363 17.7253 5.63012 18.9966 5.63012Z" stroke="#005F93" stroke-width="1.5" stroke-linecap="round" stroke-linejoin="round"/>
<path d="M23.6445 7.73939C23.1513 7.28108 22.462 6.99316 21.7032 6.99316H17.7764" stroke="#005F93" stroke-width="1.5" stroke-linecap="round" stroke-linejoin="round"/>
<path d="M23.1008 14.7729C24.4803 14.7729 25.5986 13.6522 25.5986 12.2698C25.5986 10.8874 24.4803 9.76672 23.1008 9.76672C21.7213 9.76672 20.603 10.8874 20.603 12.2698C20.603 13.6522 21.7213 14.7729 23.1008 14.7729Z" stroke="#005F93" stroke-width="1.5" stroke-linecap="round" stroke-linejoin="round"/>
<path d="M26.629 26.366H27.0463C28.1277 26.366 29.0003 25.5551 29.0003 24.5504V19.0154C29.0003 17.4936 27.6724 16.2596 26.0346 16.2596H21.8042" stroke="#005F93" stroke-width="1.5" stroke-linecap="round" stroke-linejoin="round"/>
<path d="M26.4707 19.074V32.9996" stroke="#005F93" stroke-width="1.5" stroke-linecap="round" stroke-linejoin="round"/>
<path d="M12.2627 10.3839C12.2627 11.8646 13.4578 13.0633 14.9312 13.0633C16.4046 13.0633 17.5997 11.8646 17.5997 10.3839C17.5997 8.90325 16.4046 7.70459 14.9312 7.70459C13.4578 7.70459 12.2627 8.90325 12.2627 10.3839Z" stroke="#EB6625" stroke-width="1.5" stroke-linecap="round" stroke-linejoin="round"/>
<path d="M11.1621 25.467H10.7132C9.55599 25.467 8.62012 24.5974 8.62012 23.5221V17.5993C8.62012 15.9717 10.0429 14.6497 11.7945 14.6497H18.061C19.8126 14.6497 21.2354 15.9717 21.2354 17.5993V23.5221C21.2354 24.5974 20.2995 25.467 19.1423 25.467H18.5606" stroke="#EB6625" stroke-width="1.5" stroke-linecap="round" stroke-linejoin="round"/>
<path d="M11.3267 17.6639V32.9997" stroke="#EB6625" stroke-width="1.5" stroke-linecap="round" stroke-linejoin="round"/>
<path d="M18.5347 17.6639V32.9997" stroke="#EB6625" stroke-width="1.5" stroke-linecap="round" stroke-linejoin="round"/>
<path d="M14.9307 24.3688V33.0003" stroke="#EB6625" stroke-width="1.5" stroke-linecap="round" stroke-linejoin="round"/>
</svg>
