<svg width="34" height="34" viewBox="0 0 34 34" fill="none" xmlns="http://www.w3.org/2000/svg">
<path d="M7.7909 9.94399C9.38028 9.94399 10.6687 8.52602 10.6687 6.77686C10.6687 5.02771 9.38028 3.60974 7.7909 3.60974C6.20153 3.60974 4.91309 5.02771 4.91309 6.77686C4.91309 8.52602 6.20153 9.94399 7.7909 9.94399Z" stroke="#005F93" stroke-width="1.6" stroke-linecap="round" stroke-linejoin="round"/>
<path d="M3.7321 24.6126H3.25125C2.00541 24.6126 1 23.5867 1 22.3154V15.312C1 13.3865 2.52998 11.8252 4.41695 11.8252H9.29103" stroke="#005F93" stroke-width="1.6" stroke-linecap="round" stroke-linejoin="round"/>
<path d="M3.90771 15.386V32.9985" stroke="#005F93" stroke-width="1.6" stroke-linecap="round" stroke-linejoin="round"/>
<path d="M26.2089 9.94399C27.7982 9.94399 29.0867 8.52602 29.0867 6.77686C29.0867 5.02771 27.7982 3.60974 26.2089 3.60974C24.6195 3.60974 23.3311 5.02771 23.3311 6.77686C23.3311 8.52602 24.6195 9.94399 26.2089 9.94399Z" stroke="#005F93" stroke-width="1.6" stroke-linecap="round" stroke-linejoin="round"/>
<path d="M30.2679 24.6125H30.7488C31.9946 24.6125 33 23.5865 33 22.3152V15.3119C33 13.3863 31.47 11.8251 29.5831 11.8251H24.709" stroke="#005F93" stroke-width="1.6" stroke-linecap="round" stroke-linejoin="round"/>
<path d="M30.0903 15.386V32.9985" stroke="#005F93" stroke-width="1.6" stroke-linecap="round" stroke-linejoin="round"/>
<path d="M13.9688 4.39016C13.9688 6.26367 15.3457 7.78032 17.0433 7.78032C18.7408 7.78032 20.1178 6.26367 20.1178 4.39016C20.1178 2.51665 18.7408 1 17.0433 1C15.3457 1 13.9688 2.51665 13.9688 4.39016Z" stroke="#EB6625" stroke-width="1.6" stroke-linecap="round" stroke-linejoin="round"/>
<path d="M12.7018 23.4671H12.1845C10.8512 23.4671 9.77295 22.3667 9.77295 21.0062V13.5122C9.77295 11.4528 11.4122 9.78003 13.4303 9.78003H20.6504C22.6685 9.78003 24.3077 11.4528 24.3077 13.5122V21.0062C24.3077 22.3667 23.2295 23.4671 21.8962 23.4671H21.2259" stroke="#EB6625" stroke-width="1.6" stroke-linecap="round" stroke-linejoin="round"/>
<path d="M12.8906 13.6018V32.9986" stroke="#EB6625" stroke-width="1.6" stroke-linecap="round" stroke-linejoin="round"/>
<path d="M21.2031 13.6018V32.9986" stroke="#EB6625" stroke-width="1.6" stroke-linecap="round" stroke-linejoin="round"/>
<path d="M17.0415 22.0842V32.9982" stroke="#EB6625" stroke-width="1.6" stroke-linecap="round" stroke-linejoin="round"/>
</svg>
