<svg width="313" height="338" viewBox="0 0 313 338" fill="none" xmlns="http://www.w3.org/2000/svg">
<path d="M156.5 53.9131C242.877 53.9131 313 123.825 313 209.941V338H0V209.941C0 123.825 70.1231 53.9131 156.5 53.9131Z" fill="#004070"/>
<path d="M141.03 2.33454C141.03 2.33454 133.353 -4.6957 120.91 5.64608C115.084 10.4885 110.57 16.9216 107.423 22.3884C103.954 28.4197 101.95 35.1623 101.466 42.1002C100.556 55.1998 98.694 79.2655 97.055 84.0319C97.055 84.0319 90.0688 119.053 114.202 120.361L148.082 124.775L165.506 108.641C165.506 108.641 174.426 112.984 182.103 108.022L182.724 104.71L193.097 103.054C193.097 103.054 194.965 72.6533 192.683 64.5861C191.061 58.8479 184.505 39.1904 180.851 28.322C178.281 20.6675 173.848 13.7241 167.712 8.46361C161.047 2.75255 151.714 -1.90532 141.03 2.33454Z" fill="#031026"/>
<path d="M96.2273 286.916L95.8135 306.769C95.8135 306.769 88.762 329.933 87.3081 338H238.739L239.773 333.657L229.814 316.492L227.326 309.668L218.613 293.951V280.097L152.852 276.373L96.2219 286.921L96.2273 286.916Z" fill="#071C40"/>
<path d="M95.394 278.23L95.8079 306.769C95.8079 306.769 122.985 309.043 131.697 309.043C140.409 309.043 171.109 307.8 171.109 307.8L174.845 310.281L188.534 309.038L190.402 306.351C190.402 306.351 215.504 300.145 218.613 293.94V280.086L169.242 274.5L95.394 278.224V278.23Z" fill="#031026"/>
<path d="M129.002 291.052V311.73L134.605 311.524L133.979 289.809L129.002 291.052Z" fill="#071C40"/>
<path d="M201.815 283.81L203.89 304.288L208.866 302.426L206.171 282.573L201.815 283.81Z" fill="#071C40"/>
<path d="M171.109 307.805L167.586 289.19L171.943 288.153L174.845 310.286L171.109 307.805Z" fill="#071C40"/>
<path d="M125.473 125.6L114.202 120.361L108.256 119.188L92.6989 128.081L85.6474 133.873L71.9255 139.867C64.0354 143.314 57.7953 149.649 54.441 157.559C52.1649 162.928 49.976 169.062 49.3443 173.992C47.8905 185.365 44.3674 279.673 44.3674 279.673C44.3674 279.673 43.7902 291.562 61.3346 296.133C62.6415 296.475 64.03 296.437 65.3151 296.009L69.0504 294.765L110.951 294.972L115.307 293.11C115.307 293.11 147.668 294.765 157.42 292.284C167.173 289.804 184.39 283.598 184.39 283.598L192.689 286.698L210.32 285.249L223.236 292.583C224.527 293.316 226.062 293.501 227.489 293.104L231.889 291.872C231.889 291.872 244.129 290.84 246.618 286.91C249.106 282.98 255.33 275.949 255.33 275.949L256.828 275.14C258.821 274.066 259.708 271.682 258.902 269.576L244.543 231.9L236.038 200.669L226.89 169.833C223.754 159.253 216.359 150.426 206.432 145.551C205.812 145.247 205.169 144.937 204.505 144.622L187.287 136.555C187.287 136.555 184.107 122.63 167.859 122.56L125.473 125.594V125.6Z" fill="white"/>
<path d="M121.744 266.645C121.33 267.263 118.008 281.742 118.008 281.742V290.015C118.008 290.015 127.761 283.81 127.968 270.575L121.744 266.645Z" fill="#F4D9CA"/>
<path d="M225.257 293.74L215.276 279.495C213.931 277.573 213.043 275.363 212.689 273.045L210.734 260.233L204.717 260.646L207.505 271.764C208.126 274.24 209.357 276.52 211.094 278.398L225.257 293.74Z" fill="#F4D9CA"/>
<path d="M160.116 168.889L159.114 176.826C158.95 178.107 158.896 179.393 158.95 180.685L161.156 235.831L159.081 232.937L157.159 182.944C157.055 180.305 157.404 177.667 158.183 175.148L160.116 168.894V168.889Z" fill="#F4D9CA"/>
<path d="M120.839 72.3763L121.395 117.05L114.202 120.361L127.477 136.908L137.986 140.22L160.115 168.9L176.157 147.391L180.584 136.913C180.584 136.913 176.157 125.334 167.858 122.576V71.8389L120.839 72.3926V72.3763Z" fill="#F2C0A0"/>
<path d="M124.716 59.6948L131.773 103.087C133.467 113.483 142.212 121.29 152.764 121.816L167.864 122.571L168.419 64.1084L124.716 59.6948Z" fill="#D78A71"/>
<path d="M182.294 70.8891L177.268 37.6325C177.268 37.6325 166.759 14.468 149.057 16.1238C149.057 16.1238 126.377 19.4353 120.845 31.0149C115.313 42.5944 110.886 60.797 110.886 60.797L111.006 61.2205C109.623 61.0739 108.261 61.3128 107.063 62.0022C103.344 64.1412 102.577 69.7708 105.359 74.5644C107.94 79.0268 112.677 81.1929 116.32 79.7543L119.048 89.2709C120.927 95.8234 124.994 101.534 130.587 105.459L137.23 110.123C143.023 114.189 150.222 115.736 157.181 114.411C166.503 112.631 174.126 105.948 177.083 96.9526L181.14 84.6184C182.594 80.194 182.991 75.4873 182.294 70.8783V70.8891Z" fill="#F2C0A0"/>
<path d="M119.669 246.998C119.669 246.998 117.387 249.891 117.594 255.477L118.008 281.742L144.978 263.751C144.978 263.751 150.162 265.2 153.69 264.576C157.219 263.957 164.064 260.439 164.064 260.439H177.339L197.666 223.627L173.397 224.452C173.397 224.452 168.833 225.484 166.759 227.97L146.846 240.38L119.669 246.998Z" fill="#F2C0A0"/>
<path d="M193.723 230.456L174.431 229.832L192.063 233.762L193.723 230.456Z" fill="#D78A71"/>
<path d="M119.669 246.998L89.383 251.753L89.7533 203.003C89.7859 198.975 89.4592 194.952 88.7786 190.979L86.8945 179.991L88.8984 185.566C91.5556 192.96 92.9115 200.761 92.9115 208.617V247.829L119.669 247.003V246.998Z" fill="#F4D9CA"/>
<path d="M67.3896 257.958L89.3773 251.753V248.035L67.3896 257.958Z" fill="#F4D9CA"/>
<path d="M127.755 139.248L110.744 150.621L124.787 143.862C127.445 142.581 130.265 141.658 133.167 141.115L137.992 140.209L127.76 139.242L127.755 139.248Z" fill="#F4D9CA"/>
<path d="M178.167 148.14L187.293 140.486L194.551 151.24L189.95 147.598C187.794 145.887 184.88 145.459 182.316 146.485L178.161 148.14H178.167Z" fill="#F4D9CA"/>
<path d="M214.9 189.589L163.04 264.815C162.316 265.863 162.479 267.285 163.421 268.143C163.96 268.637 164.684 268.876 165.414 268.8L225.049 262.714L279.175 188.514C279.588 187.949 279.795 187.26 279.757 186.559C279.67 184.871 278.233 183.568 276.539 183.655L220.584 186.424C218.297 186.538 216.201 187.705 214.905 189.583L214.9 189.589Z" fill="#031026"/>
<path d="M231.698 226.238L249.732 229.832L251.6 226.52L244.538 219.002C243.367 217.758 243.351 215.826 244.499 214.566C245.594 213.356 247.418 213.139 248.774 214.051L259.741 221.428C262.539 223.307 264.135 226.515 263.955 229.875L263.628 235.836L264.227 239.294C264.505 240.89 263.993 242.519 262.861 243.675L255.128 251.552L250.565 253.208L243.1 279.679L231.485 276.785L225.055 262.719L235.014 248.241L222.871 240.635C221.51 239.783 220.998 238.056 221.679 236.602L221.94 236.042L221.581 235.76C220.149 234.642 219.833 232.606 220.862 231.108C221.646 229.962 223.035 229.398 224.396 229.669L225.262 229.843L225.948 228.741C227.157 226.792 229.454 225.798 231.709 226.249L231.698 226.238Z" fill="#F2C0A0"/>
<path d="M244.342 258.165L250.56 253.203L248.698 259.821L244.342 258.165Z" fill="#D78A71"/>
<path d="M181.896 321.041V338H178.167L181.896 321.041Z" fill="#031026"/>
<path d="M159.702 88.7822L146.013 91.0569C146.013 91.0569 156.827 102.316 159.702 88.7822Z" fill="white"/>
<path d="M151.355 74.092C151.256 74.13 151.158 74.1789 151.066 74.2223C152.542 74.4612 153.854 75.4329 154.453 76.915C155.362 79.1679 154.268 81.7303 152.008 82.6369C151.899 82.6803 151.79 82.7129 151.681 82.7509C152.667 83.0603 153.767 83.0495 154.801 82.6315C157.165 81.6814 158.313 78.9996 157.361 76.6381C156.408 74.282 153.718 73.1366 151.349 74.0866L151.355 74.092Z" fill="#D78A71"/>
<path d="M142.691 59.6947C142.691 61.9205 141.716 63.7283 140.513 63.7283C139.31 63.7283 138.335 61.9205 138.335 59.6947C138.335 57.4689 139.31 55.6611 140.513 55.6611C141.716 55.6611 142.691 57.4689 142.691 59.6947Z" fill="#031026"/>
<path d="M170.799 58.8046C170.799 61.0304 169.824 62.8381 168.621 62.8381C167.418 62.8381 166.443 61.0304 166.443 58.8046C166.443 56.5788 167.418 54.771 168.621 54.771C169.824 54.771 170.799 56.5788 170.799 58.8046Z" fill="#031026"/>
<path d="M139.027 49.6839L140.328 50.6448C140.328 50.6448 133.554 49.9011 127.309 53.2778C127.309 53.2778 128.338 49.6188 134.888 48.6633C136.348 48.4516 137.84 48.8099 139.027 49.6839Z" fill="#031026"/>
<path d="M158.673 50.3141L157.704 51.6061C157.704 51.6061 163.982 48.9569 170.935 50.4064C170.935 50.4064 168.899 47.1926 162.348 48.1534C160.889 48.3652 159.566 49.1361 158.678 50.3141H158.673Z" fill="#031026"/>
<path d="M225.256 229.832L245.583 236.037C245.583 236.037 226.291 233.144 225.256 229.832Z" fill="#D78A71"/>
<path d="M221.935 236.037L239.773 244.929C239.773 244.929 222.142 239.343 221.935 236.037Z" fill="#D78A71"/>
<path d="M111.904 69.0323C111.861 68.6468 111.714 68.2614 111.447 67.9085C110.94 67.2354 110.042 66.9042 109.22 67.0779C107.766 67.3819 107.031 68.902 107.592 70.1832C107.88 70.8401 108.447 71.2852 109.095 71.4535C108.964 71.8932 108.975 72.3764 109.171 72.827C109.617 73.853 110.815 74.3253 111.844 73.8747C112.874 73.4241 113.347 72.2352 112.895 71.2092C112.814 71.0246 112.71 70.8618 112.59 70.7152C112.187 70.2429 111.97 69.6457 111.899 69.0269L111.904 69.0323Z" fill="#D78A71"/>
<path d="M114.066 79.4067V86.6487H115.656L115.101 78.9941L114.066 79.4067Z" fill="white"/>
</svg>
