<svg width="27" height="34" viewBox="0 0 27 34" fill="none" xmlns="http://www.w3.org/2000/svg">
<path d="M8.2925 9.94403C9.99737 9.94403 11.3794 8.52599 11.3794 6.77676C11.3794 5.02753 9.99737 3.6095 8.2925 3.6095C6.58764 3.6095 5.20557 5.02753 5.20557 6.77676C5.20557 8.52599 6.58764 9.94403 8.2925 9.94403Z" stroke="#005F93" stroke-width="2" stroke-linecap="round" stroke-linejoin="round"/>
<path d="M3.93064 24.6135H3.41484C2.07847 24.6135 1 23.5874 1 22.3161V15.3124C1 13.3868 2.64116 11.8254 4.66525 11.8254H9.8935" stroke="#005F93" stroke-width="2" stroke-linecap="round" stroke-linejoin="round"/>
<path d="M4.12646 15.3865V32.9997" stroke="#005F93" stroke-width="2" stroke-linecap="round" stroke-linejoin="round"/>
<path d="M14.9102 4.39031C14.9102 6.2639 16.3872 7.78062 18.2081 7.78062C20.029 7.78062 21.506 6.2639 21.506 4.39031C21.506 2.51672 20.029 1 18.2081 1C16.3872 1 14.9102 2.51672 14.9102 4.39031Z" stroke="#EB6625" stroke-width="2" stroke-linecap="round" stroke-linejoin="round"/>
<path d="M13.5503 23.4685H12.9955C11.5653 23.4685 10.4087 22.3682 10.4087 21.0076V13.5132C10.4087 11.4537 12.1671 9.78088 14.3318 9.78088H22.0765C24.2413 9.78088 25.9997 11.4537 25.9997 13.5132V21.0076C25.9997 22.3682 24.843 23.4685 23.4129 23.4685H22.6939" stroke="#EB6625" stroke-width="2" stroke-linecap="round" stroke-linejoin="round"/>
<path d="M13.7534 13.6024V33" stroke="#EB6625" stroke-width="2" stroke-linecap="round" stroke-linejoin="round"/>
<path d="M22.6719 13.6024V33" stroke="#EB6625" stroke-width="2" stroke-linecap="round" stroke-linejoin="round"/>
<path d="M18.2178 22.0851V32.9995" stroke="#EB6625" stroke-width="2" stroke-linecap="round" stroke-linejoin="round"/>
</svg>
